<svg width="15" height="14" viewBox="0 0 15 14" fill="none" xmlns="http://www.w3.org/2000/svg">
<path opacity="0.7" d="M10.133 5.10899C10.3262 5.29267 10.3262 5.59042 10.133 5.774L6.8136 8.9286C6.62033 9.11219 6.30712 9.11219 6.11384 8.9286L4.5337 7.42684C4.34042 7.24325 4.34042 6.94551 4.5337 6.76192C4.72688 6.57824 5.04018 6.57824 5.23336 6.76192L6.46367 7.93113L9.4332 5.10899C9.62647 4.92541 9.93978 4.92541 10.133 5.10899ZM13.6667 7.0188C13.6667 10.3457 10.8336 13.0376 7.33333 13.0376C3.83258 13.0376 1 10.3452 1 7.0188C1 3.69191 3.83307 1 7.33333 1C10.8341 1 13.6667 3.69237 13.6667 7.0188ZM12.6771 7.0188C12.6771 4.21172 10.2867 1.94044 7.33333 1.94044C4.37956 1.94044 1.98958 4.21209 1.98958 7.0188C1.98958 9.82588 4.37995 12.0972 7.33333 12.0972C10.2871 12.0972 12.6771 9.82551 12.6771 7.0188Z" fill="#FFFFFF" stroke="#FFFFFF"/>
</svg>
