<svg width="136" height="94" viewBox="0 0 136 94" fill="none" xmlns="http://www.w3.org/2000/svg">
<mask id="path-1-outside-1" maskUnits="userSpaceOnUse" x="-6.45792" y="-24.0458" width="145.104" height="150.21" fill="black">
<rect fill="white" x="-6.45792" y="-24.0458" width="145.104" height="150.21"/>
<path d="M32.638 74.3486C56.5097 42.3772 100.569 46.8896 119.615 53.1423C106.27 43.3474 102.74 33.4042 102.644 29.657C109.77 18.6209 124.384 14.7671 130.8 14.2196C66.8416 -16.0133 32.5374 34.6399 23.3802 63.7457L12.7976 51.1155L5.67176 88.5845L43.7034 87.9334L32.638 74.3486Z"/>
</mask>
<path d="M32.638 74.3486C56.5097 42.3772 100.569 46.8896 119.615 53.1423C106.27 43.3474 102.74 33.4042 102.644 29.657C109.77 18.6209 124.384 14.7671 130.8 14.2196C66.8416 -16.0133 32.5374 34.6399 23.3802 63.7457L12.7976 51.1155L5.67176 88.5845L43.7034 87.9334L32.638 74.3486Z" fill="#FF8AAD"/>
<path d="M32.638 74.3486C56.5097 42.3772 100.569 46.8896 119.615 53.1423C106.27 43.3474 102.74 33.4042 102.644 29.657C109.77 18.6209 124.384 14.7671 130.8 14.2196C66.8416 -16.0133 32.5374 34.6399 23.3802 63.7457L12.7976 51.1155L5.67176 88.5845L43.7034 87.9334L32.638 74.3486Z" fill="white"/>
<path d="M119.615 53.1423L118.265 57.2543C120.286 57.9179 122.49 57.0141 123.463 55.1224C124.436 53.2307 123.891 50.9121 122.176 49.6533L119.615 53.1423ZM32.638 74.3486L29.1701 71.7592L27.1503 74.4643L29.2824 77.0819L32.638 74.3486ZM43.7034 87.9334L43.7775 92.2607L52.686 92.1082L47.059 85.2001L43.7034 87.9334ZM5.67176 88.5845L1.42001 87.7759L0.425946 93.0029L5.74584 92.9118L5.67176 88.5845ZM12.7976 51.1155L16.115 48.336L10.2515 41.3381L8.54583 50.3069L12.7976 51.1155ZM23.3802 63.7457L20.0628 66.5253L25.1374 72.5816L27.5087 65.0446L23.3802 63.7457ZM130.8 14.2196L131.168 18.5319C133.118 18.3656 134.713 16.9123 135.06 14.9869C135.407 13.0615 134.419 11.1429 132.65 10.3068L130.8 14.2196ZM102.644 29.657L99.0078 27.3093L98.2826 28.4323L98.3171 29.7687L102.644 29.657ZM120.965 49.0302C110.924 45.7341 94.4974 42.9386 77.3891 45.1182C60.216 47.306 42.0042 54.5705 29.1701 71.7592L36.1059 76.9379C47.1435 62.1553 62.8972 55.6903 78.483 53.7047C94.1337 51.7108 109.259 54.2979 118.265 57.2543L120.965 49.0302ZM29.2824 77.0819L40.3478 90.6667L47.059 85.2001L35.9936 71.6153L29.2824 77.0819ZM43.6293 83.6061L5.59767 84.2572L5.74584 92.9118L43.7775 92.2607L43.6293 83.6061ZM9.9235 89.3931L17.0493 51.9241L8.54583 50.3069L1.42001 87.7759L9.9235 89.3931ZM9.48019 53.8951L20.0628 66.5253L26.6976 60.9661L16.115 48.336L9.48019 53.8951ZM27.5087 65.0446C31.898 51.0932 42.3194 32.0824 59.0379 20.2648C75.4247 8.68165 98.3222 3.6545 128.951 18.1325L132.65 10.3068C99.3198 -5.44817 73.0859 -0.26518 54.0416 13.1965C35.3289 26.4237 24.0196 47.2924 19.2518 62.4468L27.5087 65.0446ZM130.433 9.90736C126.758 10.2209 121.021 11.4386 115.209 14.0599C109.399 16.6803 103.172 20.8606 99.0078 27.3093L106.279 32.0047C109.242 27.4174 113.885 24.1527 118.768 21.9503C123.649 19.7488 128.427 18.7658 131.168 18.5319L130.433 9.90736ZM98.3171 29.7687C98.459 35.2627 103.009 46.3223 117.054 56.6313L122.176 49.6533C109.531 40.3724 107.022 31.5458 106.97 29.5453L98.3171 29.7687Z" fill="url(#paint0_linear)" mask="url(#path-1-outside-1)"/>
<defs>
<linearGradient id="paint0_linear" x1="94.5816" y1="117.773" x2="-0.272168" y2="84.7667" gradientUnits="userSpaceOnUse">
<stop stop-color="#4632FE"/>
<stop offset="1" stop-color="#F419AD"/>
</linearGradient>
</defs>
</svg>
