<svg width="50" height="50" viewBox="0 0 50 50" fill="none" xmlns="http://www.w3.org/2000/svg">
<path d="M47.9131 39.3725L39.2332 47.4103H28.9563V44.7884H38.9532C39.2643 44.7884 39.5547 44.6702 39.7828 44.4553L49.5723 35.3106C50.0805 34.8378 50.122 34.0211 49.6657 33.4946C49.2094 32.968 48.4212 32.9251 47.9131 33.3979L38.4761 42.2201H28.9563V39.5982H37.7606C38.0717 39.5982 38.3724 39.48 38.6006 39.2651L49.5931 28.8739C49.9768 28.5193 50.1012 27.9498 49.9145 27.4555C49.7279 26.9612 49.2716 26.6281 48.7531 26.6281H12.229C11.9179 26.6281 11.6172 26.7463 11.389 26.9612L0.406932 37.3523C0.0232328 37.7069 -0.10121 38.2764 0.0854544 38.7708C0.272119 39.2651 0.72841 39.5982 1.24692 39.5982H11.6483V42.2201H1.24692C0.562486 42.2201 0.0024923 42.8004 0.0024923 43.5096C0.0024923 44.2189 0.562486 44.7991 1.24692 44.7991H11.6483V47.4211H1.24692C0.562486 47.4211 0.0024923 48.0014 0.0024923 48.7106C0.0024923 49.4198 0.562486 50.0001 1.24692 50.0001H12.8927H27.7222H39.7206C40.0317 50.0001 40.3221 49.8819 40.5502 49.6669L49.5827 41.296C50.0908 40.8232 50.1427 40.0065 49.676 39.48C49.2094 38.9427 48.4212 38.8997 47.9131 39.3725ZM34.328 29.1963L26.063 37.0085H15.8275L24.0926 29.1963H34.328ZM37.2732 37.0192H29.7548L38.0199 29.207H45.5383L37.2732 37.0192ZM12.7164 29.1963H20.3904L12.1253 37.0085H4.45133L12.7164 29.1963ZM14.1268 47.4103V39.5982H26.4674V47.4103H14.1268Z" fill="#38CFD8"/>
<path d="M23.5744 12.9701H26.6751C27.8573 12.9701 28.8217 13.9695 28.8217 15.1945C28.8217 16.4195 27.8573 17.4189 26.6751 17.4189H21.1166C20.4322 17.4189 19.8722 17.9991 19.8722 18.7084C19.8722 19.4176 20.4322 19.9979 21.1166 19.9979H23.8855V22.104C23.8855 22.8132 24.4455 23.3935 25.1299 23.3935C25.8143 23.3935 26.3743 22.8132 26.3743 22.104V19.9979H26.7062C26.7165 19.9979 26.7269 19.9979 26.7373 19.9979C29.2676 19.9656 31.3106 17.8165 31.3106 15.1945C31.3106 12.5403 29.2261 10.3911 26.6751 10.3911H23.5744C22.3921 10.3911 21.4277 9.39179 21.4277 8.16678C21.4277 6.94176 22.3921 5.9424 23.5744 5.9424H29.0395C29.7239 5.9424 30.2839 5.36213 30.2839 4.65291C30.2839 3.94369 29.7239 3.36342 29.0395 3.36342H26.3743V1.28949C26.3743 0.580271 25.8143 0 25.1299 0C24.4455 0 23.8855 0.580271 23.8855 1.28949V3.35268H23.5847C21.0233 3.35268 18.9492 5.51257 18.9492 8.15603C18.9492 10.7995 21.0129 12.9701 23.5744 12.9701Z" fill="#38CFD8"/>
</svg>
