<svg width="50" height="50" viewBox="0 0 50 50" fill="none" xmlns="http://www.w3.org/2000/svg">
<path d="M37.7635 31.4545C34.2882 31.4545 31.4609 34.7169 31.4609 38.7272C31.4609 42.7375 34.2882 46 37.7635 46C41.2394 46 44.066 42.7375 44.066 38.7272C44.066 34.7169 41.2388 31.4545 37.7635 31.4545ZM37.7635 42.3636C36.0256 42.3636 34.6122 40.7327 34.6122 38.7272C34.6122 36.7218 36.0256 35.0908 37.7635 35.0908C39.5014 35.0908 40.9147 36.7218 40.9147 38.7272C40.9147 40.7328 39.5014 42.3636 37.7635 42.3636Z" fill="#38CFD8"/>
<path d="M16.2283 31.4545C12.753 31.4545 9.92578 34.7169 9.92578 38.7272C9.92578 42.7375 12.753 46 16.2283 46C19.7036 46 22.5309 42.7375 22.5309 38.7272C22.5309 34.7169 19.7036 31.4545 16.2283 31.4545ZM16.2283 42.3636C14.4904 42.3636 13.077 40.7327 13.077 38.7272C13.077 36.7218 14.4904 35.0908 16.2283 35.0908C17.9657 35.0908 19.3796 36.7218 19.3796 38.7272C19.3796 40.7328 17.9662 42.3636 16.2283 42.3636Z" fill="#38CFD8"/>
<path d="M42.0072 10.6375C41.7393 10.0235 41.1947 9.63623 40.5991 9.63623H32.3008V13.2727H39.6274L43.9179 23.12L46.7341 21.486L42.0072 10.6375Z" fill="#38CFD8"/>
<path d="M33.0356 36.97H21.1133V40.6064H33.0356V36.97Z" fill="#38CFD8"/>
<path d="M11.5025 36.97H6.04043C5.17012 36.97 4.46484 37.7839 4.46484 38.7881C4.46484 39.7924 5.17021 40.6062 6.04043 40.6062H11.5026C12.3729 40.6062 13.0782 39.7923 13.0782 38.7881C13.0782 37.7838 12.3728 36.97 11.5025 36.97Z" fill="#38CFD8"/>
<path d="M49.6696 25.8546L46.5704 21.2485C46.2727 20.8049 45.8131 20.5455 45.3262 20.5455H33.8766V7.81814C33.8766 6.81385 33.1712 6 32.301 6H6.04043C5.17012 6 4.46484 6.81396 4.46484 7.81814C4.46484 8.82232 5.17021 9.63628 6.04043 9.63628H30.7253V22.3636C30.7253 23.3679 31.4307 24.1817 32.3009 24.1817H44.5546L46.8492 27.5926V36.9697H42.4899C41.6196 36.9697 40.9144 37.7837 40.9144 38.7878C40.9144 39.7921 41.6197 40.606 42.4899 40.606H48.4248C49.2951 40.606 50.0004 39.792 50.0005 38.7878V26.9698C50.0005 26.5662 49.8839 26.1734 49.6696 25.8546Z" fill="#38CFD8"/>
<path d="M11.3977 27.7577H4.1498C3.27949 27.7577 2.57422 28.5716 2.57422 29.5758C2.57422 30.5801 3.27959 31.394 4.1498 31.394H11.3977C12.268 31.394 12.9732 30.58 12.9732 29.5758C12.9733 28.5716 12.268 27.7577 11.3977 27.7577Z" fill="#38CFD8"/>
<path d="M15.021 20.6061H1.57559C0.705371 20.6061 0 21.42 0 22.4243C0 23.4286 0.705371 24.2424 1.57559 24.2424H15.021C15.8913 24.2424 16.5966 23.4285 16.5966 22.4243C16.5966 21.4201 15.8913 20.6061 15.021 20.6061Z" fill="#38CFD8"/>
<path d="M17.5952 13.4546H4.14981C3.27949 13.4546 2.57422 14.2686 2.57422 15.2728C2.57422 16.2771 3.27959 17.0909 4.14981 17.0909H17.5952C18.4655 17.0909 19.1708 16.277 19.1708 15.2728C19.1709 14.2686 18.4655 13.4546 17.5952 13.4546Z" fill="#38CFD8"/>
</svg>
