<svg width="50" height="50" viewBox="0 0 50 50" fill="none" xmlns="http://www.w3.org/2000/svg">
<path d="M43.3224 28.25L35.7089 26.1162L34.097 11.8107C33.8742 9.83338 32.1423 8.34246 30.0682 8.34246H29.1072V7.97206C29.1074 3.57626 25.3778 0 20.7935 0C16.2092 0 12.4796 3.57626 12.4796 7.97206V8.34246H11.5185C9.44458 8.34246 7.71263 9.83348 7.4898 11.8106L5.04505 33.5076C4.80714 35.6194 5.51923 37.737 6.99912 39.3176C8.4789 40.8982 10.5981 41.8047 12.8131 41.8047H23.6887V41.9995C23.6887 43.8235 24.7339 45.4688 26.42 46.3057L31.9734 49.4356L32.0593 49.4806C32.7748 49.8269 33.5593 50 34.3443 50C35.1289 50 35.9141 49.8269 36.6294 49.4806L36.6732 49.4595L42.2689 46.3057C43.9549 45.4687 45 43.8235 45 41.9996V30.3623C44.9999 29.3765 44.3115 28.5116 43.3224 28.25ZM15.5391 7.97206C15.5391 5.19384 17.8961 2.93369 20.7935 2.93369C23.6908 2.93369 26.0479 5.19384 26.0479 7.97206V8.34246H15.5391V7.97206ZM25.3668 28.2498C24.3773 28.5112 23.6887 29.3764 23.6887 30.3623V38.871H12.813C11.4455 38.871 10.1892 38.3337 9.27562 37.3578C8.36198 36.382 7.93974 35.1266 8.0866 33.8229L10.5315 12.1258C10.5861 11.6414 11.0104 11.2762 11.5185 11.2762H12.4796V13.3656C12.4796 14.1757 13.1645 14.8324 14.0093 14.8324C14.8541 14.8324 15.539 14.1757 15.539 13.3656V11.2762H26.0479V13.3656C26.0479 14.1757 26.7328 14.8324 27.5776 14.8324C28.4224 14.8324 29.1073 14.1757 29.1073 13.3656V11.2762H30.0683C30.5764 11.2762 31.0007 11.6414 31.0553 12.1258L32.6424 26.211L25.3668 28.2498ZM40.8427 43.7097L40.799 43.7309L35.213 46.8791C34.6657 47.1303 34.0224 47.1301 33.4753 46.8792L27.9316 43.7546L27.8456 43.7096C27.1686 43.3819 26.7479 42.7266 26.7479 41.9993V30.919L34.344 28.79L41.9401 30.919V41.9994H41.9402C41.9404 42.7269 41.5198 43.3821 40.8427 43.7097Z" fill="#38CFD8"/>
</svg>
