<svg width="474" height="475" viewBox="0 0 474 475" fill="none" xmlns="http://www.w3.org/2000/svg">
<g opacity="0.2">
<ellipse cx="226.212" cy="248.582" rx="54.6596" ry="57.7884" transform="rotate(-43.0937 226.212 248.582)" fill="#9BD8F0"/>
<ellipse cx="99.4829" cy="185.132" rx="38.2617" ry="40.4519" transform="rotate(-43.0937 99.4829 185.132)" fill="#9BD8F0"/>
<ellipse cx="235.915" cy="410.966" rx="43.7277" ry="46.2307" transform="rotate(-43.0937 235.915 410.966)" fill="#9BD8F0"/>
<ellipse cx="333.841" cy="172.947" rx="48.2827" ry="51.0464" transform="rotate(-43.0937 333.841 172.947)" fill="#9BD8F0"/>
<ellipse cx="322.756" cy="263.773" rx="32.7958" ry="34.673" transform="rotate(-43.0937 322.756 263.773)" fill="#9BD8F0"/>
<path d="M126.623 215.739L138.268 190.309C138.268 190.309 150.233 198.786 158.641 202.619C167.86 206.82 183.325 210.235 183.325 210.235L171.68 235.665C171.68 235.665 160.314 226.438 152.025 222.573C142.664 218.209 126.623 215.739 126.623 215.739Z" fill="#9BD8F0"/>
<path d="M276.781 230.627L259.878 206.7C259.878 206.7 269.902 203.031 275.264 199.168C281.143 194.933 288.129 185.632 288.129 185.632L305.032 209.559C305.032 209.559 293.72 214.182 288.365 217.937C282.318 222.178 276.781 230.627 276.781 230.627Z" fill="#9BD8F0"/>
<path d="M273.764 270.292L274.624 248.657C274.624 248.657 281.526 251.338 286.007 251.693C290.919 252.082 298.528 250.119 298.528 250.119L297.667 271.754C297.667 271.754 289.678 269.001 285.246 268.589C280.241 268.124 273.764 270.292 273.764 270.292Z" fill="#9BD8F0"/>
<path d="M212.895 297.458L243.906 299.051C243.906 299.051 242.164 319.189 243.003 332.205C243.923 346.475 248.995 368.471 248.995 368.471L217.983 366.877C217.983 366.877 220.779 347.12 220.036 334.242C219.197 319.7 212.895 297.458 212.895 297.458Z" fill="#9BD8F0"/>
</g>
</svg>
