<svg width="369" height="398" viewBox="0 0 369 398" fill="none" xmlns="http://www.w3.org/2000/svg">
<g opacity="0.2">
<ellipse cx="162.931" cy="202.224" rx="54.6596" ry="57.7884" transform="rotate(-10.1923 162.931 202.224)" fill="#9BD8F0"/>
<ellipse cx="90.9937" cy="80.1133" rx="38.2617" ry="40.4519" transform="rotate(-10.1923 90.9937 80.1133)" fill="#9BD8F0"/>
<ellipse cx="82.8706" cy="343.834" rx="43.7277" ry="46.2307" transform="rotate(-10.1923 82.8706 343.834)" fill="#9BD8F0"/>
<ellipse cx="294.382" cy="197.184" rx="48.2827" ry="51.0464" transform="rotate(-10.1923 294.382 197.184)" fill="#9BD8F0"/>
<ellipse cx="235.738" cy="267.421" rx="32.7958" ry="34.673" transform="rotate(-10.1923 235.738 267.421)" fill="#9BD8F0"/>
<path d="M97.1562 120.553L120.747 105.527C120.747 105.527 126.188 119.144 131.166 126.929C136.624 135.465 147.754 146.732 147.754 146.732L124.163 161.758C124.163 161.758 119.632 147.836 114.772 140.089C109.283 131.34 97.1562 120.553 97.1562 120.553Z" fill="#9BD8F0"/>
<path d="M215.143 214.618L213.947 185.347C213.947 185.347 224.357 187.711 230.957 187.381C238.194 187.019 249.111 183.004 249.111 183.004L250.307 212.275C250.307 212.275 238.297 210.011 231.761 210.256C224.38 210.532 215.143 214.618 215.143 214.618Z" fill="#9BD8F0"/>
<path d="M191.063 246.282L203.537 228.585C203.537 228.585 207.875 234.585 211.444 237.317C215.358 240.312 222.813 242.797 222.813 242.797L210.338 260.494C210.338 260.494 205.126 253.843 201.628 251.09C197.679 247.98 191.063 246.282 191.063 246.282Z" fill="#9BD8F0"/>
<path d="M125.199 236.026L150.371 254.209C150.371 254.209 137.969 270.171 131.604 281.554C124.625 294.035 116.936 315.259 116.936 315.259L91.7634 297.075C91.7634 297.075 104.843 282.005 111.214 270.79C118.409 258.124 125.199 236.026 125.199 236.026Z" fill="#9BD8F0"/>
</g>
</svg>
