<svg width="504" height="562" viewBox="0 0 504 562" fill="none" xmlns="http://www.w3.org/2000/svg">
<g opacity="0.2">
<ellipse rx="75.352" ry="79.298" transform="matrix(-0.97509 0.221808 0.221808 0.97509 252.778 277.096)" fill="#9BD8F0"/>
<ellipse rx="52.7464" ry="55.5086" transform="matrix(-0.97509 0.221808 0.221808 0.97509 278.452 84.2108)" fill="#9BD8F0"/>
<ellipse rx="60.2816" ry="63.4384" transform="matrix(-0.97509 0.221808 0.221808 0.97509 430.492 412.872)" fill="#9BD8F0"/>
<ellipse rx="66.5609" ry="70.0466" transform="matrix(-0.97509 0.221808 0.221808 0.97509 83.2394 341.414)" fill="#9BD8F0"/>
<ellipse rx="45.2112" ry="47.5788" transform="matrix(-0.97509 0.221808 0.221808 0.97509 195.414 398.577)" fill="#9BD8F0"/>
<path d="M292.367 138.592L254.352 132.302C254.352 132.302 254.764 152.424 252.63 164.931C250.291 178.644 242.22 198.857 242.22 198.857L280.236 205.147C280.236 205.147 278.505 185.131 280.509 172.734C282.773 158.734 292.367 138.592 292.367 138.592Z" fill="#9BD8F0"/>
<path d="M193.176 320.821L178.962 283.215C178.962 283.215 167.021 291.798 158.467 294.93C149.088 298.364 133.074 299.165 133.074 299.165L147.288 336.771C147.288 336.771 161.313 327.455 169.74 324.249C179.256 320.629 193.176 320.821 193.176 320.821Z" fill="#9BD8F0"/>
<path d="M240.752 347.86L215.408 332.219C215.408 332.219 213.127 342.129 210.066 347.498C206.709 353.385 198.583 360.531 198.583 360.531L223.926 376.172C223.926 376.172 226.967 364.97 229.926 359.612C233.267 353.562 240.752 347.86 240.752 347.86Z" fill="#9BD8F0"/>
<path d="M318.832 299.492L296.657 335.989C296.657 335.989 320.975 349.477 335.172 360.429C350.737 372.438 371.902 395.104 371.902 395.104L394.077 358.607C394.077 358.607 369.378 346.609 355.265 335.872C339.326 323.747 318.832 299.492 318.832 299.492Z" fill="#9BD8F0"/>
</g>
</svg>
