<svg width="19" height="18" viewBox="0 0 19 18" fill="none" xmlns="http://www.w3.org/2000/svg">
<path opacity="0.45" d="M8.75862 6.58997L0.303534 15.0939C0.10782 15.2905 -8.51239e-08 15.5531 -7.29566e-08 15.8331C-6.07893e-08 16.113 0.10782 16.3756 0.303534 16.5723L0.926049 17.1985C1.33169 17.606 1.99097 17.606 2.39599 17.1985L9.49606 10.0576L16.604 17.2064C16.7997 17.4031 17.0606 17.5117 17.3388 17.5117C17.6173 17.5117 17.8782 17.4031 18.0741 17.2064L18.6965 16.5802C18.8922 16.3833 19 16.1209 19 15.841C19 15.561 18.8922 15.2985 18.6965 15.1018L10.2337 6.58997C10.0373 6.39282 9.77519 6.28454 9.49652 6.28516C9.21678 6.28454 8.9548 6.39282 8.75862 6.58997Z" fill="#58ACF1"/>
<path opacity="0.6" d="M8.75862 0.473763L0.303534 8.97765C0.10782 9.17434 -8.51239e-08 9.4369 -7.29566e-08 9.71685C-6.07893e-08 9.99681 0.10782 10.2594 0.303534 10.4561L0.926049 11.0823C1.33169 11.4898 1.99097 11.4898 2.39599 11.0823L9.49606 3.94138L16.604 11.0902C16.7997 11.2869 17.0606 11.3955 17.3388 11.3955C17.6173 11.3955 17.8782 11.2869 18.0741 11.0902L18.6965 10.464C18.8922 10.2671 19 10.0047 19 9.72478C19 9.44482 18.8922 9.18226 18.6965 8.98558L10.2337 0.473763C10.0373 0.276612 9.77519 0.168327 9.49652 0.168949C9.21678 0.168327 8.9548 0.276612 8.75862 0.473763Z" fill="#58ACF1"/>
</svg>
