<svg width="544" height="562" viewBox="0 0 544 562" fill="none" xmlns="http://www.w3.org/2000/svg">
<g opacity="0.2">
<ellipse rx="75.352" ry="79.298" transform="matrix(-0.97509 0.221808 0.221808 0.97509 292.778 277.096)" fill="#9BD8F0"/>
<ellipse rx="52.7464" ry="55.5086" transform="matrix(-0.97509 0.221808 0.221808 0.97509 318.452 84.2108)" fill="#9BD8F0"/>
<ellipse rx="60.2816" ry="63.4384" transform="matrix(-0.97509 0.221808 0.221808 0.97509 470.492 412.872)" fill="#9BD8F0"/>
<ellipse rx="66.5609" ry="70.0466" transform="matrix(-0.97509 0.221808 0.221808 0.97509 123.239 341.414)" fill="#9BD8F0"/>
<ellipse rx="45.2112" ry="47.5788" transform="matrix(-0.97509 0.221808 0.221808 0.97509 235.414 398.577)" fill="#9BD8F0"/>
<path d="M332.367 138.592L294.352 132.302C294.352 132.302 294.764 152.424 292.63 164.931C290.291 178.644 282.22 198.857 282.22 198.857L320.236 205.147C320.236 205.147 318.505 185.131 320.509 172.734C322.773 158.734 332.367 138.592 332.367 138.592Z" fill="#9BD8F0"/>
<path d="M233.176 320.821L218.962 283.215C218.962 283.215 207.021 291.798 198.467 294.93C189.088 298.364 173.074 299.165 173.074 299.165L187.288 336.771C187.288 336.771 201.313 327.455 209.74 324.249C219.256 320.629 233.176 320.821 233.176 320.821Z" fill="#9BD8F0"/>
<path d="M280.752 347.86L255.408 332.219C255.408 332.219 253.127 342.129 250.066 347.498C246.709 353.385 238.583 360.531 238.583 360.531L263.926 376.172C263.926 376.172 266.967 364.97 269.926 359.612C273.267 353.562 280.752 347.86 280.752 347.86Z" fill="#9BD8F0"/>
<path d="M358.832 299.492L336.657 335.989C336.657 335.989 360.975 349.477 375.172 360.429C390.737 372.438 411.902 395.104 411.902 395.104L434.077 358.607C434.077 358.607 409.378 346.609 395.265 335.872C379.326 323.747 358.832 299.492 358.832 299.492Z" fill="#9BD8F0"/>
</g>
</svg>
