<svg width="173" height="30" viewBox="0 0 173 30" fill="none" xmlns="http://www.w3.org/2000/svg">
<path d="M14.9267 1.41985C15.1742 0.658226 16.2517 0.658225 16.4991 1.41985L19.5043 10.6689C19.615 11.0095 19.9324 11.2401 20.2906 11.2401H30.0156C30.8164 11.2401 31.1493 12.2649 30.5015 12.7356L22.6338 18.4518C22.344 18.6623 22.2228 19.0354 22.3335 19.376L25.3387 28.6251C25.5861 29.3867 24.7144 30.02 24.0665 29.5493L16.1988 23.8331C15.9091 23.6226 15.5168 23.6226 15.227 23.8331L7.35932 29.5493C6.71144 30.02 5.83973 29.3867 6.0872 28.6251L9.09239 19.376C9.20306 19.0354 9.08182 18.6623 8.79208 18.4518L0.924385 12.7356C0.276506 12.2649 0.609471 11.2401 1.41029 11.2401H11.1353C11.4934 11.2401 11.8108 11.0095 11.9215 10.6689L14.9267 1.41985Z" fill="#5FD2FF"/>
<path d="M50.3544 1.41985C50.6019 0.658226 51.6794 0.658225 51.9269 1.41985L54.9321 10.6689C55.0427 11.0095 55.3601 11.2401 55.7183 11.2401H65.4433C66.2441 11.2401 66.5771 12.2649 65.9292 12.7356L58.0615 18.4518C57.7718 18.6623 57.6505 19.0354 57.7612 19.376L60.7664 28.6251C61.0139 29.3867 60.1421 30.02 59.4943 29.5493L51.6266 23.8331C51.3368 23.6226 50.9445 23.6226 50.6548 23.8331L42.7871 29.5493C42.1392 30.02 41.2675 29.3867 41.5149 28.6251L44.5201 19.376C44.6308 19.0354 44.5096 18.6623 44.2198 18.4518L36.3521 12.7356C35.7042 12.2649 36.0372 11.2401 36.838 11.2401H46.563C46.9212 11.2401 47.2386 11.0095 47.3493 10.6689L50.3544 1.41985Z" fill="#5FD2FF"/>
<path d="M85.7822 1.41985C86.0296 0.658226 87.1071 0.658225 87.3546 1.41985L90.3598 10.6689C90.4705 11.0095 90.7879 11.2401 91.146 11.2401H100.871C101.672 11.2401 102.005 12.2649 101.357 12.7356L93.4892 18.4518C93.1995 18.6623 93.0783 19.0354 93.1889 19.376L96.1941 28.6251C96.4416 29.3867 95.5699 30.02 94.922 29.5493L87.0543 23.8331C86.7646 23.6226 86.3722 23.6226 86.0825 23.8331L78.2148 29.5493C77.5669 30.02 76.6952 29.3867 76.9427 28.6251L79.9479 19.376C80.0585 19.0354 79.9373 18.6623 79.6475 18.4518L71.7799 12.7356C71.132 12.2649 71.4649 11.2401 72.2658 11.2401H81.9908C82.3489 11.2401 82.6663 11.0095 82.777 10.6689L85.7822 1.41985Z" fill="#5FD2FF"/>
<path d="M121.21 1.41985C121.457 0.658226 122.535 0.658225 122.782 1.41985L125.788 10.6689C125.898 11.0095 126.216 11.2401 126.574 11.2401H136.299C137.1 11.2401 137.433 12.2649 136.785 12.7356L128.917 18.4518C128.627 18.6623 128.506 19.0354 128.617 19.376L131.622 28.6251C131.869 29.3867 130.998 30.02 130.35 29.5493L122.482 23.8331C122.192 23.6226 121.8 23.6226 121.51 23.8331L113.643 29.5493C112.995 30.02 112.123 29.3867 112.37 28.6251L115.376 19.376C115.486 19.0354 115.365 18.6623 115.075 18.4518L107.208 12.7356C106.56 12.2649 106.893 11.2401 107.693 11.2401H117.419C117.777 11.2401 118.094 11.0095 118.205 10.6689L121.21 1.41985Z" fill="#5FD2FF"/>
<path d="M156.638 1.41985C156.885 0.658226 157.963 0.658225 158.21 1.41985L161.215 10.6689C161.326 11.0095 161.643 11.2401 162.001 11.2401H171.727C172.527 11.2401 172.86 12.2649 172.212 12.7356L164.345 18.4518C164.055 18.6623 163.934 19.0354 164.044 19.376L167.05 28.6251C167.297 29.3867 166.425 30.02 165.777 29.5493L157.91 23.8331C157.62 23.6226 157.228 23.6226 156.938 23.8331L149.07 29.5493C148.422 30.02 147.551 29.3867 147.798 28.6251L150.803 19.376C150.914 19.0354 150.793 18.6623 150.503 18.4518L142.635 12.7356C141.987 12.2649 142.32 11.2401 143.121 11.2401H152.846C153.204 11.2401 153.522 11.0095 153.632 10.6689L156.638 1.41985Z" fill="#5FD2FF"/>
</svg>
