<svg width="15" height="17" viewBox="0 0 15 17" fill="none" xmlns="http://www.w3.org/2000/svg">
<path d="M14.9928 13.0797C15.0246 13.3356 14.9504 13.558 14.7705 13.7471L12.6586 15.9493C12.5633 16.0605 12.4389 16.1552 12.2854 16.233C12.1319 16.3108 11.9811 16.3609 11.8329 16.3831C11.8224 16.3831 11.7905 16.386 11.7376 16.3915C11.6847 16.3971 11.6159 16.3999 11.5312 16.3999C11.33 16.3999 11.0045 16.3638 10.5545 16.2914C10.1046 16.2191 9.55416 16.0411 8.90316 15.7575C8.252 15.4739 7.51363 15.0484 6.68792 14.4812C5.86222 13.914 4.98353 13.1353 4.05193 12.1454C3.31089 11.3779 2.69689 10.6438 2.20992 9.94308C1.72295 9.24231 1.33125 8.59441 1.03484 7.99933C0.738394 7.40426 0.516082 6.8648 0.367874 6.38096C0.219666 5.89711 0.119096 5.48 0.0661644 5.12963C0.0132329 4.77926 -0.00793973 4.50397 0.00264658 4.30376C0.0132329 4.10355 0.018526 3.99232 0.018526 3.97008C0.0396986 3.81436 0.087337 3.65586 0.161441 3.49457C0.235545 3.33329 0.325529 3.2026 0.431392 3.10249L2.54336 0.883482C2.69157 0.727762 2.86095 0.649902 3.0515 0.649902C3.18912 0.649902 3.31087 0.691613 3.41673 0.775035C3.52259 0.858456 3.61258 0.961342 3.68668 1.08369L5.38578 4.47061C5.48106 4.64857 5.50752 4.84322 5.46518 5.05456C5.42283 5.26589 5.33285 5.44386 5.19523 5.58845L4.41713 6.40598C4.39596 6.42823 4.37744 6.46438 4.36156 6.51443C4.34568 6.56448 4.33774 6.60619 4.33774 6.63956C4.38008 6.87314 4.47536 7.14009 4.62357 7.44041C4.7506 7.70736 4.94645 8.0327 5.21111 8.41644C5.47576 8.80018 5.85158 9.24229 6.33855 9.74282C6.81493 10.2545 7.23838 10.6521 7.6089 10.9358C7.97935 11.2193 8.2891 11.428 8.53788 11.5614C8.78666 11.6949 8.97721 11.7755 9.10951 11.8033L9.30795 11.845C9.32913 11.845 9.36361 11.8366 9.4112 11.82C9.45883 11.8033 9.49324 11.7838 9.51444 11.7616L10.4195 10.7939C10.6102 10.6159 10.8324 10.5269 11.0865 10.5269C11.2665 10.5269 11.4094 10.5603 11.5152 10.6271H11.5311L14.5958 12.5291C14.8182 12.6738 14.9505 12.8572 14.9928 13.0797Z" fill="#FF8AAD"/>
<path d="M14.9928 13.0797C15.0246 13.3356 14.9504 13.558 14.7705 13.7471L12.6586 15.9493C12.5633 16.0605 12.4389 16.1552 12.2854 16.233C12.1319 16.3108 11.9811 16.3609 11.8329 16.3831C11.8224 16.3831 11.7905 16.386 11.7376 16.3915C11.6847 16.3971 11.6159 16.3999 11.5312 16.3999C11.33 16.3999 11.0045 16.3638 10.5545 16.2914C10.1046 16.2191 9.55416 16.0411 8.90316 15.7575C8.252 15.4739 7.51363 15.0484 6.68792 14.4812C5.86222 13.914 4.98353 13.1353 4.05193 12.1454C3.31089 11.3779 2.69689 10.6438 2.20992 9.94308C1.72295 9.24231 1.33125 8.59441 1.03484 7.99933C0.738394 7.40426 0.516082 6.8648 0.367874 6.38096C0.219666 5.89711 0.119096 5.48 0.0661644 5.12963C0.0132329 4.77926 -0.00793973 4.50397 0.00264658 4.30376C0.0132329 4.10355 0.018526 3.99232 0.018526 3.97008C0.0396986 3.81436 0.087337 3.65586 0.161441 3.49457C0.235545 3.33329 0.325529 3.2026 0.431392 3.10249L2.54336 0.883482C2.69157 0.727762 2.86095 0.649902 3.0515 0.649902C3.18912 0.649902 3.31087 0.691613 3.41673 0.775035C3.52259 0.858456 3.61258 0.961342 3.68668 1.08369L5.38578 4.47061C5.48106 4.64857 5.50752 4.84322 5.46518 5.05456C5.42283 5.26589 5.33285 5.44386 5.19523 5.58845L4.41713 6.40598C4.39596 6.42823 4.37744 6.46438 4.36156 6.51443C4.34568 6.56448 4.33774 6.60619 4.33774 6.63956C4.38008 6.87314 4.47536 7.14009 4.62357 7.44041C4.7506 7.70736 4.94645 8.0327 5.21111 8.41644C5.47576 8.80018 5.85158 9.24229 6.33855 9.74282C6.81493 10.2545 7.23838 10.6521 7.6089 10.9358C7.97935 11.2193 8.2891 11.428 8.53788 11.5614C8.78666 11.6949 8.97721 11.7755 9.10951 11.8033L9.30795 11.845C9.32913 11.845 9.36361 11.8366 9.4112 11.82C9.45883 11.8033 9.49324 11.7838 9.51444 11.7616L10.4195 10.7939C10.6102 10.6159 10.8324 10.5269 11.0865 10.5269C11.2665 10.5269 11.4094 10.5603 11.5152 10.6271H11.5311L14.5958 12.5291C14.8182 12.6738 14.9505 12.8572 14.9928 13.0797Z" fill="white"/>
<path d="M14.9928 13.0797C15.0246 13.3356 14.9504 13.558 14.7705 13.7471L12.6586 15.9493C12.5633 16.0605 12.4389 16.1552 12.2854 16.233C12.1319 16.3108 11.9811 16.3609 11.8329 16.3831C11.8224 16.3831 11.7905 16.386 11.7376 16.3915C11.6847 16.3971 11.6159 16.3999 11.5312 16.3999C11.33 16.3999 11.0045 16.3638 10.5545 16.2914C10.1046 16.2191 9.55416 16.0411 8.90316 15.7575C8.252 15.4739 7.51363 15.0484 6.68792 14.4812C5.86222 13.914 4.98353 13.1353 4.05193 12.1454C3.31089 11.3779 2.69689 10.6438 2.20992 9.94308C1.72295 9.24231 1.33125 8.59441 1.03484 7.99933C0.738394 7.40426 0.516082 6.8648 0.367874 6.38096C0.219666 5.89711 0.119096 5.48 0.0661644 5.12963C0.0132329 4.77926 -0.00793973 4.50397 0.00264658 4.30376C0.0132329 4.10355 0.018526 3.99232 0.018526 3.97008C0.0396986 3.81436 0.087337 3.65586 0.161441 3.49457C0.235545 3.33329 0.325529 3.2026 0.431392 3.10249L2.54336 0.883482C2.69157 0.727762 2.86095 0.649902 3.0515 0.649902C3.18912 0.649902 3.31087 0.691613 3.41673 0.775035C3.52259 0.858456 3.61258 0.961342 3.68668 1.08369L5.38578 4.47061C5.48106 4.64857 5.50752 4.84322 5.46518 5.05456C5.42283 5.26589 5.33285 5.44386 5.19523 5.58845L4.41713 6.40598C4.39596 6.42823 4.37744 6.46438 4.36156 6.51443C4.34568 6.56448 4.33774 6.60619 4.33774 6.63956C4.38008 6.87314 4.47536 7.14009 4.62357 7.44041C4.7506 7.70736 4.94645 8.0327 5.21111 8.41644C5.47576 8.80018 5.85158 9.24229 6.33855 9.74282C6.81493 10.2545 7.23838 10.6521 7.6089 10.9358C7.97935 11.2193 8.2891 11.428 8.53788 11.5614C8.78666 11.6949 8.97721 11.7755 9.10951 11.8033L9.30795 11.845C9.32913 11.845 9.36361 11.8366 9.4112 11.82C9.45883 11.8033 9.49324 11.7838 9.51444 11.7616L10.4195 10.7939C10.6102 10.6159 10.8324 10.5269 11.0865 10.5269C11.2665 10.5269 11.4094 10.5603 11.5152 10.6271H11.5311L14.5958 12.5291C14.8182 12.6738 14.9505 12.8572 14.9928 13.0797Z" fill="url(#paint0_linear)"/>
<defs>
<linearGradient id="paint0_linear" x1="8.38187e-08" y1="8.5249" x2="15" y2="8.5249" gradientUnits="userSpaceOnUse">
<stop stop-color="#4432FF"/>
<stop offset="1" stop-color="#F618AC"/>
</linearGradient>
</defs>
</svg>
