<svg width="13" height="15" viewBox="0 0 13 15" fill="none" xmlns="http://www.w3.org/2000/svg">
<path d="M6.5 7.5C8.2875 7.5 9.75 5.8125 9.75 3.75C9.75 1.6875 8.2875 0 6.5 0C4.7125 0 3.25 1.6875 3.25 3.75C3.25 5.8125 4.7125 7.5 6.5 7.5ZM6.5 9.375C4.30625 9.375 0 10.5938 0 13.125V15H13V13.125C13 10.5938 8.69375 9.375 6.5 9.375Z" fill="#FF8AAD"/>
<path d="M6.5 7.5C8.2875 7.5 9.75 5.8125 9.75 3.75C9.75 1.6875 8.2875 0 6.5 0C4.7125 0 3.25 1.6875 3.25 3.75C3.25 5.8125 4.7125 7.5 6.5 7.5ZM6.5 9.375C4.30625 9.375 0 10.5938 0 13.125V15H13V13.125C13 10.5938 8.69375 9.375 6.5 9.375Z" fill="white"/>
<path d="M6.5 7.5C8.2875 7.5 9.75 5.8125 9.75 3.75C9.75 1.6875 8.2875 0 6.5 0C4.7125 0 3.25 1.6875 3.25 3.75C3.25 5.8125 4.7125 7.5 6.5 7.5ZM6.5 9.375C4.30625 9.375 0 10.5938 0 13.125V15H13V13.125C13 10.5938 8.69375 9.375 6.5 9.375Z" fill="url(#paint0_linear)"/>
<defs>
<linearGradient id="paint0_linear" x1="7.26429e-08" y1="7.5" x2="13" y2="7.5" gradientUnits="userSpaceOnUse">
<stop stop-color="#4432FF"/>
<stop offset="1" stop-color="#F618AC"/>
</linearGradient>
</defs>
</svg>
