<svg width="17" height="14" viewBox="0 0 17 14" fill="none" xmlns="http://www.w3.org/2000/svg">
<path d="M8.88802 13.0233C8.44165 13.6044 7.74653 13.9615 6.99495 13.997C6.24337 14.0329 5.51544 13.7423 5.01184 13.2059L0.49892 8.40242C-0.218325 7.63947 -0.154612 6.46339 0.640843 5.77545C1.43706 5.08752 2.66248 5.14899 3.37973 5.91231L6.57261 9.31101C6.61992 9.36151 6.68859 9.38859 6.75917 9.38529C6.83014 9.382 6.89499 9.34797 6.93734 9.29381L13.5001 0.756442C14.1354 -0.0705458 15.3493 -0.246555 16.2119 0.363074C17.0738 0.972703 17.2569 2.13707 16.6213 2.9637L8.88802 13.0233Z" fill="#1894CA"/>
</svg>
