<svg width="1917" height="95" viewBox="0 0 1917 95" fill="none" xmlns="http://www.w3.org/2000/svg">
<path opacity="0.3" d="M1419.54 24.8226C1241.42 -15.3362 1075.58 1.56432 962 17.7405V95H1923V17.7405C1798 35.6068 1636.03 73.5927 1419.54 24.8226Z" fill="#76C5E4"/>
<path opacity="0.3" d="M458.019 24.8226C279.715 -15.3362 113.703 1.56432 0 17.7405V95H962V17.7405C836.873 35.6068 674.736 73.5927 458.019 24.8226Z" fill="#76C5E4"/>
<path d="M503.457 24.8226C681.576 -15.3362 847.415 1.56432 961 17.7405V95H-6.10352e-05V17.7405C124.997 35.6068 286.965 73.5927 503.457 24.8226Z" fill="#76C5E4"/>
<path d="M1464.98 24.8226C1643.29 -15.3362 1809.3 1.56432 1923 17.7405V95H961V17.7405C1086.13 35.6068 1248.26 73.5927 1464.98 24.8226Z" fill="#76C5E4"/>
</svg>
