<svg width="302" height="14" viewBox="0 0 302 14" fill="none" xmlns="http://www.w3.org/2000/svg">
<circle cx="7" cy="7" r="3" fill="white"/>
<circle cx="31" cy="7" r="3" fill="white"/>
<circle cx="55" cy="7" r="3" fill="white"/>
<circle cx="79" cy="7" r="3" fill="white"/>
<circle cx="103" cy="7" r="3" fill="white"/>
<circle cx="127" cy="7" r="3" fill="white"/>
<circle cx="151" cy="7" r="3" fill="white"/>
<circle cx="175" cy="7" r="3" fill="white"/>
<circle cx="199" cy="7" r="3" fill="white"/>
<circle cx="223" cy="7" r="3" fill="white"/>
<circle cx="247" cy="7" r="3" fill="white"/>
<circle cx="295" cy="7" r="3" fill="white"/>
<circle cx="271" cy="7" r="3" fill="white"/>
<circle cx="7" cy="7" r="6.5" stroke="white"/>
<circle cx="55" cy="7" r="6.5" stroke="white"/>
<circle cx="103" cy="7" r="6.5" stroke="white"/>
<circle cx="151" cy="7" r="6.5" stroke="white"/>
<circle cx="199" cy="7" r="6.5" stroke="white"/>
<circle cx="247" cy="7" r="6.5" stroke="white"/>
<circle cx="295" cy="7" r="6.5" stroke="white"/>
</svg>
