<svg width="44" height="75" viewBox="0 0 44 75" fill="none" xmlns="http://www.w3.org/2000/svg">
<path d="M42.8053 40.4265L9.47624 73.8018C8.70537 74.5744 7.67634 75 6.57911 75C5.48188 75 4.45285 74.5744 3.68199 73.8018L1.22753 71.3445C-0.369599 69.7433 -0.369599 67.1409 1.22753 65.5421L29.2148 37.5155L1.19648 9.45785C0.425618 8.6853 0 7.65542 0 6.55726C0 5.45788 0.425618 4.42801 1.19648 3.65485L3.65094 1.19816C4.42241 0.425598 5.45083 0 6.54806 0C7.64529 0 8.67432 0.425598 9.44518 1.19816L42.8053 34.604C43.578 35.379 44.0024 36.4137 44 37.5137C44.0024 38.618 43.578 39.6521 42.8053 40.4265Z" fill="#FAFEFF"/>
</svg>
