<svg width="100" height="100" viewBox="0 0 100 100" fill="none" xmlns="http://www.w3.org/2000/svg">
<circle cx="50" cy="50" r="50" fill="#2D76A9"/>
<path d="M73.4668 31.782C73.2266 31.782 72.9927 31.6936 72.8094 31.5105L68.5107 27.2174L64.2121 31.5105C63.8517 31.8704 63.2575 31.8704 62.8972 31.5105C62.5369 31.1507 62.5369 30.5572 62.8972 30.1973L67.8533 25.2477C68.2136 24.8878 68.8078 24.8878 69.1682 25.2477L74.1242 30.191C74.4846 30.5509 74.4846 31.1443 74.1242 31.5042C73.9409 31.6873 73.707 31.782 73.4668 31.782Z" fill="white" stroke="white"/>
<path d="M68.5132 53.9298C68.0012 53.9298 67.584 53.5131 67.584 53.0018V28.2408C67.584 27.7294 67.9949 27.3127 68.5132 27.3127C69.0253 27.3127 69.4425 27.7294 69.4425 28.2408V53.0018C69.4425 53.5131 69.0253 53.9298 68.5132 53.9298Z" fill="white" stroke="white" stroke-width="1.1"/>
<path d="M55.1543 31.782C54.9141 31.782 54.6802 31.6936 54.4968 31.5105L50.1982 27.2174L45.8996 31.5105C45.5392 31.8704 44.945 31.8704 44.5847 31.5105C44.2244 31.1507 44.2244 30.5572 44.5847 30.1973L49.5408 25.2477C49.9011 24.8878 50.4953 24.8878 50.8556 25.2477L55.8117 30.191C56.172 30.5509 56.172 31.1443 55.8117 31.5042C55.6284 31.6873 55.3945 31.782 55.1543 31.782Z" fill="white" stroke="white"/>
<path d="M50.2007 53.9298C49.6887 53.9298 49.2715 53.5131 49.2715 53.0018V28.2408C49.2715 27.7294 49.6887 27.3127 50.2007 27.3127C50.7128 27.3127 51.13 27.7294 51.13 28.2408V53.0018C51.13 53.5131 50.7128 53.9298 50.2007 53.9298Z" fill="white" stroke="white" stroke-width="1.1"/>
<path d="M36.8398 31.782C36.5996 31.782 36.3657 31.6936 36.1824 31.5105L31.8838 27.2174L27.5851 31.5105C27.2248 31.8704 26.6306 31.8704 26.2702 31.5105C25.9099 31.1507 25.9099 30.5572 26.2702 30.1973L31.2263 25.2477C31.5866 24.8878 32.1809 24.8878 32.5412 25.2477L37.4973 30.191C37.8576 30.5509 37.8576 31.1443 37.4973 31.5042C37.3203 31.6873 37.0801 31.782 36.8398 31.782Z" fill="white" stroke="white"/>
<path d="M31.8863 53.9298C31.3743 53.9298 30.957 53.5131 30.957 53.0018V28.2408C30.957 27.7294 31.3743 27.3127 31.8863 27.3127C32.3983 27.3127 32.8156 27.7294 32.8156 28.2408V53.0018C32.8156 53.5131 32.3983 53.9298 31.8863 53.9298Z" fill="white" stroke="white" stroke-width="1.1"/>
<path d="M50.0196 67.9307C46.7261 67.9307 44.3654 66.4963 42.081 65.1099C39.9107 63.7921 37.8642 62.5498 35.0895 62.5498H24.8188C24.4333 62.5498 24.1191 62.0968 24.1191 61.5409C24.1191 60.985 24.4333 60.532 24.8188 60.532H35.0847C38.145 60.532 40.4199 61.9115 42.6188 63.2499C44.8747 64.6226 47.0069 65.9129 50.0148 65.9129C53.0227 65.9129 55.1549 64.6157 57.4108 63.2499C59.6097 61.9115 61.8894 60.532 64.9449 60.532H75.2108C75.5963 60.532 75.9105 60.985 75.9105 61.5409C75.9105 62.0968 75.5963 62.5498 75.2108 62.5498H64.9497C62.175 62.5498 60.1237 63.7921 57.9582 65.1099C55.6737 66.4963 53.3083 67.9307 50.0196 67.9307Z" fill="white" stroke="white" stroke-width="1.2"/>
<path d="M50.0196 78.0288C46.7261 78.0288 44.3654 76.7737 42.081 75.5606C39.9107 74.4075 37.8642 73.3205 35.0895 73.3205H24.8188C24.4333 73.3205 24.1191 72.9242 24.1191 72.4377C24.1191 71.9513 24.4333 71.5549 24.8188 71.5549H35.0847C38.145 71.5549 40.4199 72.762 42.6188 73.9331C44.8747 75.1342 47.0069 76.2632 50.0148 76.2632C53.0227 76.2632 55.1549 75.1282 57.4108 73.9331C59.6097 72.762 61.8894 71.5549 64.9449 71.5549H75.2108C75.5963 71.5549 75.9105 71.9513 75.9105 72.4377C75.9105 72.9242 75.5963 73.3205 75.2108 73.3205H64.9497C62.175 73.3205 60.1237 74.4075 57.9582 75.5606C55.6737 76.7737 53.3083 78.0288 50.0196 78.0288Z" fill="white" stroke="white" stroke-width="1.2"/>
</svg>
