<svg width="100" height="100" viewBox="0 0 100 100" fill="none" xmlns="http://www.w3.org/2000/svg">
<circle cx="50" cy="50" r="50" fill="#2D76A9"/>
<path d="M50.0377 70.3198C41.621 70.3198 35.5137 64.1522 35.5137 55.6518C35.5137 52.987 36.0986 50.3297 37.2152 47.9743L49.0198 22.8508C49.2021 22.4582 49.5971 22.2091 50.0301 22.2091C50.4631 22.2091 50.8581 22.4582 51.0404 22.8508L62.8601 47.9743C63.9692 50.3372 64.5617 52.9945 64.5617 55.6518C64.5617 64.1522 58.4543 70.3198 50.0377 70.3198ZM50.0377 25.9384L39.2358 48.9104C38.2635 50.9789 37.747 53.3116 37.747 55.6518C37.747 62.9821 42.7985 68.1004 50.0377 68.1004C57.2769 68.1004 62.3284 62.9821 62.3284 55.6518C62.3284 53.3116 61.8118 50.9865 60.8395 48.9104L50.0377 25.9384Z" fill="white" stroke="white" stroke-width="0.8"/>
<path d="M48.0648 63.0579C47.9418 63.0579 47.8187 63.0346 47.6883 62.9879C45.8565 62.257 42.7793 60.1808 42.7793 54.5821C42.7793 53.0891 43.0255 51.565 43.5033 50.1887C43.7061 49.5977 44.3215 49.2945 44.8718 49.5122C45.4221 49.7299 45.7045 50.3909 45.5017 50.9818C45.118 52.1094 44.9152 53.3535 44.9152 54.5821C44.9152 58.5945 46.834 60.2041 48.4414 60.8495C48.9916 61.0672 49.274 61.7282 49.064 62.3192C48.9047 62.778 48.4993 63.0579 48.0648 63.0579Z" fill="white" stroke="white"/>
<path d="M47.6406 45.8105C47.4642 45.8105 47.2879 45.7796 47.1199 45.7022C46.4986 45.4389 46.2383 44.7576 46.5238 44.1847L48.5894 40.1125C48.8749 39.5396 49.6138 39.2996 50.2352 39.5628C50.8566 39.8261 51.1169 40.5073 50.8314 41.0802L48.7657 45.1525C48.5474 45.5705 48.1024 45.8105 47.6406 45.8105Z" fill="white" stroke="white"/>
<path d="M50.0002 82.0194C34.7668 82.0194 23.284 70.3151 23.284 54.7932C23.284 50.1841 24.2909 45.5657 26.2032 41.4501L28.9957 36.3868C29.5777 35.1391 29.4853 33.6958 28.7462 32.5319C28.0072 31.368 26.7508 30.6697 25.3836 30.6697H19.358C18.6097 30.6697 18 30.0551 18 29.3009C18 28.5467 18.6097 27.9321 19.358 27.9321H25.3836C27.6931 27.9321 29.7994 29.1054 31.0373 31.0607C32.2751 33.0161 32.4322 35.4464 31.453 37.5507L28.6605 42.614C26.9237 46.3664 25.9999 50.5844 25.9999 54.8025C25.9999 68.7601 36.3188 79.2912 50.0002 79.2912C63.6816 79.2912 74.0004 68.7508 74.0004 54.7932C74.0004 50.5751 73.0766 46.3664 71.3399 42.6047L68.5381 37.5507C67.5589 35.4464 67.716 33.0254 68.9539 31.0607C70.1917 29.1054 72.3072 27.9321 74.6075 27.9321H80.6331C81.3814 27.9321 81.9911 28.5467 81.9911 29.3009C81.9911 30.0551 81.3814 30.6697 80.6331 30.6697H74.6167C73.2495 30.6697 71.9839 31.368 71.2541 32.5319C70.5151 33.6958 70.4227 35.1391 71.0047 36.3868L73.8064 41.4501C75.7187 45.5657 76.7256 50.1841 76.7256 54.7932C76.7164 70.3151 65.2336 82.0194 50.0002 82.0194Z" fill="white" stroke="white" stroke-width="0.6"/>
</svg>
