<svg width="100" height="100" viewBox="0 0 100 100" fill="none" xmlns="http://www.w3.org/2000/svg">
<circle cx="50" cy="50" r="50" fill="#2D76A9"/>
<path d="M16.9336 58.6919C20.1586 64.0839 22.982 68.935 28.4178 72.5884" stroke="white" stroke-width="2.50556" stroke-linecap="round" stroke-linejoin="round"/>
<path d="M81.4844 58.6919C78.2594 64.0839 75.4359 68.935 70.0001 72.5884" stroke="white" stroke-width="2.50556" stroke-linecap="round" stroke-linejoin="round"/>
<path d="M23.1566 60.526L15.1253 53.8521L14.464 63.9731L23.1566 60.526Z" fill="white" stroke="white" stroke-width="1.25278" stroke-linejoin="round"/>
<path d="M75.2614 60.526L83.2927 53.8521L83.9539 63.9731L75.2614 60.526Z" fill="white" stroke="white" stroke-width="1.25278" stroke-linejoin="round"/>
<path d="M20.9434 50V41.6056C20.9434 29.5644 30.6398 12.5095 48.7015 12.5095C66.7633 12.5095 76.4597 29.5644 76.4597 41.6056V50.8325" stroke="white" stroke-width="3" stroke-linecap="round" stroke-linejoin="round"/>
<path d="M66.0942 54.9846C66.0942 58.5809 60.5767 72.3774 48.7015 72.3774C36.8262 72.3774 31.3087 58.5809 31.3087 54.9846C31.3087 54.9846 25.957 52.8948 25.957 46.9571C25.957 43.7809 28.1405 42.9434 29.9708 42.9434L30.9708 35.2558C31.3087 32.5 31.8143 32 32.2693 31.3977C36.1117 26.3109 40.6473 23.199 48.7015 23.199C59.5 24 63.2152 28.8535 65.1336 31.3977C65.5878 32 66.0942 33.5 66.4322 35.2558L67.4322 42.9434C69.2624 42.9434 71.4459 43.7809 71.4459 46.9571C71.4459 52.8948 66.0942 54.9846 66.0942 54.9846Z" stroke="white" stroke-width="3" stroke-linecap="round" stroke-linejoin="round"/>
<path d="M43 62.0518C44.5212 63.3162 46.4823 64.0095 48.5105 63.9999C50.5386 63.9903 52.4923 63.2786 54 62" stroke="white" stroke-width="2.45283" stroke-linecap="round" stroke-linejoin="round"/>
<path d="M58 70C58 73.2785 61.7583 79 75 79" stroke="white" stroke-width="3" stroke-linecap="round" stroke-linejoin="round"/>
<path d="M39.1831 68.8988C39.1831 72.4753 35.3269 78.717 21.7285 78.717" stroke="white" stroke-width="3" stroke-linecap="round" stroke-linejoin="round"/>
<path d="M51.9081 48.354C53.6108 50.039 56.4107 50.22 59.9434 47.7181" stroke="white" stroke-width="2" stroke-linecap="round" stroke-linejoin="round"/>
<path d="M44.2228 48.354C42.5201 50.039 39.7201 50.22 36.1875 47.7181" stroke="white" stroke-width="2" stroke-linecap="round" stroke-linejoin="round"/>
<path d="M44 41C42.437 38.8848 39.377 38.1783 35 40.2089" stroke="white" stroke-width="1.5" stroke-linecap="round" stroke-linejoin="round"/>
<path d="M53 41C54.563 38.8848 57.623 38.1783 62 40.2089" stroke="white" stroke-width="1.5" stroke-linecap="round" stroke-linejoin="round"/>
<path d="M53.0311 13C53.6142 13.396 54.1143 14.0873 54.4657 14.9829C54.8171 15.8785 55.0033 16.9367 55 18.0184C54.9966 19.1001 54.8038 20.1547 54.4469 21.0438C54.0899 21.9328 53.5856 22.6148 53 23" stroke="white" stroke-width="2.45283" stroke-linecap="round" stroke-linejoin="round"/>
</svg>
