<svg width="100" height="100" viewBox="0 0 100 100" fill="none" xmlns="http://www.w3.org/2000/svg">
<circle cx="50" cy="50" r="50" fill="#2D76A9"/>
<path d="M20.2324 50.1056V41.5023C20.2324 29.1616 31.17 11.6825 49.6811 11.6825C68.1921 11.6825 79.1297 29.1616 79.1297 41.5023V57.108" stroke="white" stroke-width="3" stroke-linecap="round" stroke-linejoin="round"/>
<path d="M67.5067 55.2141C67.5067 58.8998 61.852 73.0395 49.6813 73.0395C37.5106 73.0395 31.8558 58.8998 31.8558 55.2141C31.8558 55.2141 26.3711 53.0723 26.3711 46.987C26.3711 43.7318 28.6089 42.8734 30.4847 42.8734L31.5095 34.9945C31.8558 32.1702 32.374 31.6578 32.8404 31.0405C36.7784 25.8272 41.4267 22.6378 49.6813 22.6378C60.7485 23.4588 64.556 28.433 66.5222 31.0405C66.9877 31.6578 67.5067 33.1951 67.8531 34.9945L68.8779 42.8734C70.7537 42.8734 72.9915 43.7318 72.9915 46.987C72.9915 53.0723 67.5067 55.2141 67.5067 55.2141Z" stroke="white" stroke-width="3" stroke-linecap="round" stroke-linejoin="round"/>
<path d="M43.8379 62.4572C45.3969 63.753 47.4069 64.4635 49.4854 64.4537C51.564 64.4439 53.5663 63.7145 55.1115 62.4041" stroke="white" stroke-width="2.45283" stroke-linecap="round" stroke-linejoin="round"/>
<path d="M59.2109 70.603C59.2109 73.9631 63.0627 79.8269 76.6338 79.8269" stroke="white" stroke-width="3" stroke-linecap="round" stroke-linejoin="round"/>
<path d="M39.9239 69.4745C39.9239 73.14 35.9719 79.5369 22.0352 79.5369" stroke="white" stroke-width="3" stroke-linecap="round" stroke-linejoin="round"/>
<path d="M52.9667 48.4185C54.7118 50.1455 57.5814 50.331 61.2019 47.7668" stroke="white" stroke-width="2" stroke-linecap="round" stroke-linejoin="round"/>
<path d="M45.0919 48.4185C43.3468 50.1455 40.4772 50.331 36.8567 47.7668" stroke="white" stroke-width="2" stroke-linecap="round" stroke-linejoin="round"/>
<path d="M44.8626 40.8817C43.2607 38.7138 40.1246 37.9898 35.6387 40.0709" stroke="white" stroke-width="1.5" stroke-linecap="round" stroke-linejoin="round"/>
<path d="M54.0867 40.8817C55.6885 38.7138 58.8247 37.9898 63.3105 40.0709" stroke="white" stroke-width="1.5" stroke-linecap="round" stroke-linejoin="round"/>
<path d="M71.2231 67.2231C69.9579 68.4883 67 69 67 69C67 69 69.9579 69.5117 71.2231 70.7769C72.4883 72.0421 73 75 73 75C73 75 73.5117 72.0421 74.7769 70.7769C76.0421 69.5117 79 69 79 69C79 69 76.0421 68.4883 74.7769 67.2231C73.5117 65.9579 73 63 73 63C73 63 72.4883 65.9579 71.2231 67.2231Z" fill="white"/>
<path d="M82.3056 63.0511C80.891 64.4656 77.584 65.0377 77.584 65.0377C77.584 65.0377 80.891 65.6099 82.3056 67.0244C83.7201 68.439 84.2923 71.746 84.2923 71.746C84.2923 71.746 84.8644 68.439 86.2789 67.0244C87.6935 65.6099 91.0005 65.0377 91.0005 65.0377C91.0005 65.0377 87.6935 64.4656 86.2789 63.0511C84.8644 61.6365 84.2923 58.3295 84.2923 58.3295C84.2923 58.3295 83.7201 61.6365 82.3056 63.0511Z" fill="white"/>
<path d="M23.089 66.7691C21.9102 67.9479 19.1543 68.4247 19.1543 68.4247C19.1543 68.4247 21.9102 68.9015 23.089 70.0803C24.2677 71.2591 24.7445 74.0149 24.7445 74.0149C24.7445 74.0149 25.2213 71.2591 26.4001 70.0803C27.5789 68.9015 30.3348 68.4247 30.3348 68.4247C30.3348 68.4247 27.5789 67.9479 26.4001 66.7691C25.2213 65.5903 24.7445 62.8345 24.7445 62.8345C24.7445 62.8345 24.2677 65.5903 23.089 66.7691Z" fill="white"/>
<path d="M13.8134 59.7298C12.3988 61.1443 9.0918 61.7165 9.0918 61.7165C9.0918 61.7165 12.3988 62.2886 13.8134 63.7031C15.2279 65.1177 15.8001 68.4247 15.8001 68.4247C15.8001 68.4247 16.3722 65.1177 17.7868 63.7031C19.2013 62.2886 22.5084 61.7165 22.5084 61.7165C22.5084 61.7165 19.2013 61.1443 17.7868 59.7298C16.3722 58.3152 15.8001 55.0082 15.8001 55.0082C15.8001 55.0082 15.2279 58.3152 13.8134 59.7298Z" fill="white"/>
<path d="M54.1178 12.1852C54.7154 12.5911 55.2279 13.2995 55.5881 14.2174C55.9482 15.1353 56.1391 16.2198 56.1356 17.3284C56.1322 18.437 55.9346 19.5178 55.5688 20.429C55.203 21.3402 54.6861 22.0391 54.0859 22.4339" stroke="white" stroke-width="2.45283" stroke-linecap="round" stroke-linejoin="round"/>
</svg>
